{
  "accessors": [
    {
      "bufferView": 1,
      "componentType": 5126,
      "count": 5182,
      "max": [
        68.0,
        -0.0,
        51.40299987792969
      ],
      "min": [
        -20.0,
        -10.0,
        -44.0
      ],
      "type": "VEC3"
    },
    {
      "bufferView": 1,
      "byteOffset": 62184,
      "componentType": 5126,
      "count": 5182,
      "max": [
        1.0,
        1.0,
        1.0
      ],
      "min": [
        -1.0,
        -1.0,
        -1.0
      ],
      "type": "VEC3"
    },
    {
      "bufferView": 0,
      "componentType": 5125,
      "count": 15060,
      "type": "SCALAR"
    }
  ],
  "asset": {
    "extras": {
      "author": "Ghostly038 (https://sketchfab.com/Ghostly038)",
      "license": "CC-BY-4.0 (http://creativecommons.org/licenses/by/4.0/)",
      "source": "https://sketchfab.com/3d-models/assassin-creed-4217290512054b8a8095fe9fbc35239b",
      "title": "Assassin Creed"
    },
    "generator": "Sketchfab-13.96.0",
    "version": "2.0"
  },
  "bufferViews": [
    {
      "buffer": 0,
      "byteLength": 60240,
      "name": "floatBufferViews",
      "target": 34963
    },
    {
      "buffer": 0,
      "byteLength": 124368,
      "byteOffset": 60240,
      "byteStride": 12,
      "name": "floatBufferViews",
      "target": 34962
    }
  ],
  "buffers": [
    {
      "byteLength": 184608,
      "uri": "scene.bin"
    }
  ],
  "materials": [
    {
      "doubleSided": true,
      "name": "color_10988977",
      "pbrMetallicRoughness": {
        "baseColorFactor": [
          0.654902,
          0.678431,
          0.694118,
          1.0
        ],
        "roughnessFactor": 0.15058133521534653
      }
    }
  ],
  "meshes": [
    {
      "name": "Object_0",
      "primitives": [
        {
          "attributes": {
            "NORMAL": 1,
            "POSITION": 0
          },
          "indices": 2,
          "material": 0,
          "mode": 4
        }
      ]
    }
  ],
  "nodes": [
    {
      "children": [
        1
      ],
      "matrix": [
        0.001878968387401675,
        -8.314812115994961e-05,
        3.807544152023923e-05,
        0.0,
        1.2768092650539808e-09,
        -0.000783203922540283,
        -0.0017104026080469739,
        0.0,
        9.145134696876642e-05,
        0.0017083803829218774,
        -0.0007822778589246373,
        0.0,
        0.0,
        0.0,
        0.0,
        1.0
      ],
      "name": "Sketchfab_model"
    },
    {
      "children": [
        2
      ],
      "name": "tinker.obj.cleaner.materialmerger.gles"
    },
    {
      "mesh": 0,
      "name": "Object_2"
    }
  ],
  "scene": 0,
  "scenes": [
    {
      "name": "Sketchfab_Scene",
      "nodes": [
        0
      ]
    }
  ]
}
