{
  "accessors": [
    {
      "bufferView": 1,
      "componentType": 5126,
      "count": 9750,
      "max": [
        1.4259357452392578,
        2.2735178470611572,
        0.047540083527565
      ],
      "min": [
        -1.4216235876083374,
        -1.5388798713684082,
        -0.047540098428726196
      ],
      "type": "VEC3"
    },
    {
      "bufferView": 1,
      "byteOffset": 117000,
      "componentType": 5126,
      "count": 9750,
      "max": [
        0.9999985694885254,
        0.9999982118606567,
        1.0
      ],
      "min": [
        -0.9999954700469971,
        -0.9999997615814209,
        -1.0
      ],
      "type": "VEC3"
    },
    {
      "bufferView": 0,
      "componentType": 5125,
      "count": 19452,
      "type": "SCALAR"
    }
  ],
  "asset": {
    "extras": {
      "author": "Promaster273 (https://sketchfab.com/Promaster273)",
      "license": "CC-BY-4.0 (http://creativecommons.org/licenses/by/4.0/)",
      "source": "https://sketchfab.com/3d-models/assasin-creed-logo-57296298145a4c96af5b690777077354",
      "title": "ASSASIN CREED LOGO"
    },
    "generator": "Sketchfab-14.38.0",
    "version": "2.0"
  },
  "bufferViews": [
    {
      "buffer": 0,
      "byteLength": 77808,
      "name": "floatBufferViews",
      "target": 34963
    },
    {
      "buffer": 0,
      "byteLength": 234000,
      "byteOffset": 77808,
      "byteStride": 12,
      "name": "floatBufferViews",
      "target": 34962
    }
  ],
  "buffers": [
    {
      "byteLength": 311808,
      "uri": "scene.bin"
    }
  ],
  "materials": [
    {
      "doubleSided": true,
      "name": "Material.001",
      "pbrMetallicRoughness": {
        "baseColorFactor": [
          0.000781861,
          0.0,
          0.00792556,
          1.0
        ],
        "metallicFactor": 0.0,
        "roughnessFactor": 0.9998082430663664
      }
    }
  ],
  "meshes": [
    {
      "name": "BezierCurve.002_Material.001_0",
      "primitives": [
        {
          "attributes": {
            "NORMAL": 1,
            "POSITION": 0
          },
          "indices": 2,
          "material": 0,
          "mode": 4
        }
      ]
    }
  ],
  "nodes": [
    {
      "children": [
        1
      ],
      "matrix": [
        0.9022224545478821,
        -0.05837712436914454,
        0.42730170488357544,
        0.0,
        0.3689964711666107,
        0.617360293865204,
        -0.6947717666625975,
        0.0,
        -0.22324034571647644,
        0.7845115661621093,
        0.5785372853279116,
        0.0,
        0.0,
        0.0,
        0.0,
        1.0
      ],
      "name": "Sketchfab_model"
    },
    {
      "children": [
        2
      ],
      "matrix": [
        0.009999999776482582,
        0.0,
        0.0,
        0.0,
        0.0,
        0.0,
        0.009999999776482582,
        0.0,
        0.0,
        -0.009999999776482582,
        0.0,
        0.0,
        0.0,
        0.0,
        0.0,
        1.0
      ],
      "name": "0ee453bb360d4eb5a1c3e8b1a9613de9.fbx"
    },
    {
      "children": [
        3,
        6
      ],
      "name": "RootNode"
    },
    {
      "children": [
        4
      ],
      "matrix": [
        -29.08647719990347,
        -5.518906457566863,
        -95.51711910171437,
        0.0,
        56.63930913109449,
        79.46723428563203,
        -21.83912397841966,
        0.0,
        77.11008775993375,
        -60.45246356562044,
        -19.98834696773717,
        0.0,
        407.6245422363281,
        590.38623046875,
        -100.54539489746094,
        1.0
      ],
      "name": "Light"
    },
    {
      "children": [
        5
      ],
      "matrix": [
        1.0,
        0.0,
        0.0,
        0.0,
        0.0,
        2.220446049250313e-16,
        1.0,
        0.0,
        0.0,
        -1.0,
        2.220446049250313e-16,
        0.0,
        0.0,
        0.0,
        0.0,
        1.0
      ],
      "name": "Object_4"
    },
    {
      "name": "Object_5"
    },
    {
      "children": [
        7
      ],
      "matrix": [
        100.0,
        0.0,
        0.0,
        0.0,
        0.0,
        -1.629206793918314e-05,
        -99.99999999999868,
        0.0,
        0.0,
        99.99999999999868,
        -1.629206793918314e-05,
        0.0,
        0.0,
        0.0,
        0.0,
        1.0
      ],
      "name": "BezierCurve.002"
    },
    {
      "mesh": 0,
      "name": "BezierCurve.002_Material.001_0"
    }
  ],
  "scene": 0,
  "scenes": [
    {
      "name": "Sketchfab_Scene",
      "nodes": [
        0
      ]
    }
  ]
}
