{
  "accessors": [
    {
      "bufferView": 2,
      "componentType": 5126,
      "count": 244,
      "max": [
        0.05216120183467865,
        0.7590140104293823,
        0.01737160049378872
      ],
      "min": [
        0.015246300026774406,
        0.7147160172462463,
        -0.017249200493097305
      ],
      "type": "VEC3"
    },
    {
      "bufferView": 2,
      "byteOffset": 2928,
      "componentType": 5126,
      "count": 244,
      "max": [
        1.0,
        0.9992542266845703,
        0.9965063333511353
      ],
      "min": [
        0.038596995174884796,
        -0.9992548823356628,
        -0.9965063333511353
      ],
      "type": "VEC3"
    },
    {
      "bufferView": 3,
      "componentType": 5126,
      "count": 244,
      "max": [
        0.9992512464523315,
        0.3866579830646515,
        1.0,
        1.0
      ],
      "min": [
        -0.9992504119873047,
        -0.2995077967643738,
        -0.2533724009990692,
        -1.0
      ],
      "type": "VEC4"
    },
    {
      "bufferView": 1,
      "componentType": 5126,
      "count": 244,
      "max": [
        0.9570950269699097,
        0.9673429727554321
      ],
      "min": [
        0.010916000232100487,
        0.019571000710129738
      ],
      "type": "VEC2"
    },
    {
      "bufferView": 0,
      "componentType": 5125,
      "count": 1140,
      "type": "SCALAR"
    },
    {
      "bufferView": 2,
      "byteOffset": 5856,
      "componentType": 5126,
      "count": 288,
      "max": [
        0.022322099655866623,
        0.8462979793548584,
        0.03611620143055916
      ],
      "min": [
        -0.47389501333236694,
        0.6259300112724304,
        -0.0351984016597271
      ],
      "type": "VEC3"
    },
    {
      "bufferView": 2,
      "byteOffset": 9312,
      "componentType": 5126,
      "count": 288,
      "max": [
        0.9999971389770508,
        0.9998895525932312,
        1.0
      ],
      "min": [
        -0.9999996423721313,
        -0.9999324679374695,
        -1.0
      ],
      "type": "VEC3"
    },
    {
      "bufferView": 3,
      "byteOffset": 3904,
      "componentType": 5126,
      "count": 288,
      "max": [
        0.9474620819091797,
        0.9999747276306152,
        1.0,
        1.0
      ],
      "min": [
        -1.0,
        -1.0,
        -1.0,
        -1.0
      ],
      "type": "VEC4"
    },
    {
      "bufferView": 1,
      "byteOffset": 1952,
      "componentType": 5126,
      "count": 288,
      "max": [
        0.9580519795417786,
        0.9662150144577026
      ],
      "min": [
        0.01709599979221821,
        0.0
      ],
      "type": "VEC2"
    },
    {
      "bufferView": 0,
      "byteOffset": 4560,
      "componentType": 5125,
      "count": 582,
      "type": "SCALAR"
    },
    {
      "bufferView": 2,
      "byteOffset": 12768,
      "componentType": 5126,
      "count": 390,
      "max": [
        -0.014694799669086933,
        0.8818749785423279,
        0.06527169793844223
      ],
      "min": [
        -0.1640940010547638,
        0.6030480265617371,
        -0.06527169793844223
      ],
      "type": "VEC3"
    },
    {
      "bufferView": 2,
      "byteOffset": 17448,
      "componentType": 5126,
      "count": 390,
      "max": [
        0.997771143913269,
        1.0,
        0.9985846281051636
      ],
      "min": [
        -0.997771143913269,
        -1.0,
        -0.9985846281051636
      ],
      "type": "VEC3"
    },
    {
      "bufferView": 3,
      "byteOffset": 8512,
      "componentType": 5126,
      "count": 390,
      "max": [
        0.9412498474121094,
        0.9985846281051636,
        1.0,
        1.0
      ],
      "min": [
        -0.9412534236907959,
        -0.9985843896865845,
        -1.0,
        1.0
      ],
      "type": "VEC4"
    },
    {
      "bufferView": 1,
      "byteOffset": 4256,
      "componentType": 5126,
      "count": 390,
      "max": [
        0.9980080127716064,
        0.984233021736145
      ],
      "min": [
        0.0019920000340789557,
        0.0019650000613182783
      ],
      "type": "VEC2"
    },
    {
      "bufferView": 0,
      "byteOffset": 6888,
      "componentType": 5125,
      "count": 1320,
      "type": "SCALAR"
    },
    {
      "bufferView": 2,
      "byteOffset": 22128,
      "componentType": 5126,
      "count": 1260,
      "max": [
        -0.012736200354993343,
        0.60732102394104,
        0.05644199997186661
      ],
      "min": [
        -0.19204500317573547,
        -1.0,
        -0.055524200201034546
      ],
      "type": "VEC3"
    },
    {
      "bufferView": 2,
      "byteOffset": 37248,
      "componentType": 5126,
      "count": 1260,
      "max": [
        1.0,
        0.5717830061912537,
        1.0
      ],
      "min": [
        -1.0,
        -0.9999784827232361,
        -1.0
      ],
      "type": "VEC3"
    },
    {
      "bufferView": 3,
      "byteOffset": 14752,
      "componentType": 5126,
      "count": 1260,
      "max": [
        0.9999756217002869,
        0.8678198456764221,
        0.9999988079071045,
        1.0
      ],
      "min": [
        -0.9999836683273315,
        -0.6828214526176453,
        -1.0,
        1.0
      ],
      "type": "VEC4"
    },
    {
      "bufferView": 1,
      "byteOffset": 7376,
      "componentType": 5126,
      "count": 1260,
      "max": [
        0.5862720012664795,
        0.9881669878959656
      ],
      "min": [
        0.12489300221204758,
        0.04594999924302101
      ],
      "type": "VEC2"
    },
    {
      "bufferView": 0,
      "byteOffset": 12168,
      "componentType": 5125,
      "count": 7020,
      "type": "SCALAR"
    },
    {
      "bufferView": 2,
      "byteOffset": 52368,
      "componentType": 5126,
      "count": 314,
      "max": [
        0.47389501333236694,
        1.0,
        0.025721099227666855
      ],
      "min": [
        0.009809990413486958,
        0.46034398674964905,
        -0.024803299456834793
      ],
      "type": "VEC3"
    },
    {
      "bufferView": 2,
      "byteOffset": 56136,
      "componentType": 5126,
      "count": 314,
      "max": [
        0.332344114780426,
        0.5319462418556213,
        0.9605932235717773
      ],
      "min": [
        -0.6026650667190552,
        -0.5319381356239319,
        -0.9605932235717773
      ],
      "type": "VEC3"
    },
    {
      "bufferView": 3,
      "byteOffset": 34912,
      "componentType": 5126,
      "count": 314,
      "max": [
        0.032500699162483215,
        -0.8352566361427307,
        0.5495345592498779,
        1.0
      ],
      "min": [
        -0.04021512344479561,
        -0.9999901652336121,
        -0.549572765827179,
        -1.0
      ],
      "type": "VEC4"
    },
    {
      "bufferView": 1,
      "byteOffset": 17456,
      "componentType": 5126,
      "count": 314,
      "max": [
        0.9904109835624695,
        0.9863939881324768
      ],
      "min": [
        0.027512000873684883,
        0.014721999876201153
      ],
      "type": "VEC2"
    },
    {
      "bufferView": 0,
      "byteOffset": 40248,
      "componentType": 5125,
      "count": 912,
      "type": "SCALAR"
    }
  ],
  "asset": {
    "extras": {
      "author": "Gustavo Ribeiro (https://sketchfab.com/Gustavo_Ribeiro)",
      "license": "CC-BY-4.0 (http://creativecommons.org/licenses/by/4.0/)",
      "source": "https://sketchfab.com/3d-models/assassins-creed-connors-axe-13589259c8cc470c9e740ac87dbad6f3",
      "title": "Assassin's Creed: Connor's Axe"
    },
    "generator": "Sketchfab-12.68.0",
    "version": "2.0"
  },
  "bufferViews": [
    {
      "buffer": 0,
      "byteLength": 43896,
      "name": "floatBufferViews",
      "target": 34963
    },
    {
      "buffer": 0,
      "byteLength": 19968,
      "byteOffset": 43896,
      "byteStride": 8,
      "name": "floatBufferViews",
      "target": 34962
    },
    {
      "buffer": 0,
      "byteLength": 59904,
      "byteOffset": 63864,
      "byteStride": 12,
      "name": "floatBufferViews",
      "target": 34962
    },
    {
      "buffer": 0,
      "byteLength": 39936,
      "byteOffset": 123768,
      "byteStride": 16,
      "name": "floatBufferViews",
      "target": 34962
    }
  ],
  "buffers": [
    {
      "byteLength": 163704,
      "uri": "scene.bin"
    }
  ],
  "images": [
    {
      "uri": "textures/Lamina_baseColor.jpeg"
    },
    {
      "uri": "textures/Lamina_metallicRoughness.png"
    },
    {
      "uri": "textures/Lamina_normal.png"
    },
    {
      "uri": "textures/cabo_baseColor.jpeg"
    },
    {
      "uri": "textures/cabo_metallicRoughness.png"
    },
    {
      "uri": "textures/cabo_normal.png"
    },
    {
      "uri": "textures/subcabo1_baseColor.jpeg"
    },
    {
      "uri": "textures/subcabo1_metallicRoughness.png"
    },
    {
      "uri": "textures/ponta1_baseColor.jpeg"
    },
    {
      "uri": "textures/ponta1_metallicRoughness.png"
    },
    {
      "uri": "textures/ponta1_normal.png"
    },
    {
      "uri": "textures/initialShadingGroup_baseColor.jpeg"
    },
    {
      "uri": "textures/initialShadingGroup_metallicRoughness.png"
    },
    {
      "uri": "textures/initialShadingGroup_normal.png"
    }
  ],
  "materials": [
    {
      "doubleSided": true,
      "name": "Lamina",
      "normalTexture": {
        "index": 2
      },
      "occlusionTexture": {
        "index": 1
      },
      "pbrMetallicRoughness": {
        "baseColorTexture": {
          "index": 0
        },
        "metallicRoughnessTexture": {
          "index": 1
        }
      }
    },
    {
      "doubleSided": true,
      "name": "cabo",
      "normalTexture": {
        "index": 5
      },
      "occlusionTexture": {
        "index": 4
      },
      "pbrMetallicRoughness": {
        "baseColorTexture": {
          "index": 3
        },
        "metallicRoughnessTexture": {
          "index": 4
        }
      }
    },
    {
      "doubleSided": true,
      "name": "subcabo1",
      "normalTexture": {
        "index": 5
      },
      "occlusionTexture": {
        "index": 7
      },
      "pbrMetallicRoughness": {
        "baseColorTexture": {
          "index": 6
        },
        "metallicRoughnessTexture": {
          "index": 7
        }
      }
    },
    {
      "doubleSided": true,
      "name": "ponta1",
      "normalTexture": {
        "index": 10
      },
      "occlusionTexture": {
        "index": 9
      },
      "pbrMetallicRoughness": {
        "baseColorTexture": {
          "index": 8
        },
        "metallicRoughnessTexture": {
          "index": 9
        }
      }
    },
    {
      "doubleSided": true,
      "name": "initialShadingGroup",
      "normalTexture": {
        "index": 13
      },
      "occlusionTexture": {
        "index": 12
      },
      "pbrMetallicRoughness": {
        "baseColorTexture": {
          "index": 11
        },
        "metallicRoughnessTexture": {
          "index": 12
        }
      }
    }
  ],
  "meshes": [
    {
      "name": "defaultMaterial",
      "primitives": [
        {
          "attributes": {
            "NORMAL": 1,
            "POSITION": 0,
            "TANGENT": 2,
            "TEXCOORD_0": 3
          },
          "indices": 4,
          "material": 4,
          "mode": 4
        }
      ]
    },
    {
      "name": "defaultMaterial",
      "primitives": [
        {
          "attributes": {
            "NORMAL": 6,
            "POSITION": 5,
            "TANGENT": 7,
            "TEXCOORD_0": 8
          },
          "indices": 9,
          "material": 3,
          "mode": 4
        }
      ]
    },
    {
      "name": "defaultMaterial",
      "primitives": [
        {
          "attributes": {
            "NORMAL": 11,
            "POSITION": 10,
            "TANGENT": 12,
            "TEXCOORD_0": 13
          },
          "indices": 14,
          "material": 2,
          "mode": 4
        }
      ]
    },
    {
      "name": "defaultMaterial",
      "primitives": [
        {
          "attributes": {
            "NORMAL": 16,
            "POSITION": 15,
            "TANGENT": 17,
            "TEXCOORD_0": 18
          },
          "indices": 19,
          "material": 1,
          "mode": 4
        }
      ]
    },
    {
      "name": "defaultMaterial",
      "primitives": [
        {
          "attributes": {
            "NORMAL": 21,
            "POSITION": 20,
            "TANGENT": 22,
            "TEXCOORD_0": 23
          },
          "indices": 24,
          "material": 0,
          "mode": 4
        }
      ]
    }
  ],
  "nodes": [
    {
      "children": [
        1
      ],
      "matrix": [
        1.0,
        0.0,
        0.0,
        0.0,
        0.0,
        2.220446049250313e-16,
        -1.0,
        0.0,
        0.0,
        1.0,
        2.220446049250313e-16,
        0.0,
        0.0,
        0.0,
        0.0,
        1.0
      ],
      "name": "Sketchfab_model"
    },
    {
      "children": [
        2,
        4,
        6,
        8,
        10
      ],
      "matrix": [
        1.0,
        0.0,
        0.0,
        0.0,
        0.0,
        -4.371139006309477e-08,
        0.999999999999999,
        0.0,
        0.0,
        -0.999999999999999,
        -4.371139006309477e-08,
        0.0,
        0.0,
        0.0,
        0.0,
        1.0
      ],
      "name": "Collada visual scene group"
    },
    {
      "children": [
        3
      ],
      "name": "g"
    },
    {
      "mesh": 0,
      "name": "defaultMaterial"
    },
    {
      "children": [
        5
      ],
      "name": "g"
    },
    {
      "mesh": 1,
      "name": "defaultMaterial"
    },
    {
      "children": [
        7
      ],
      "name": "g"
    },
    {
      "mesh": 2,
      "name": "defaultMaterial"
    },
    {
      "children": [
        9
      ],
      "name": "g"
    },
    {
      "mesh": 3,
      "name": "defaultMaterial"
    },
    {
      "children": [
        11
      ],
      "name": "g"
    },
    {
      "mesh": 4,
      "name": "defaultMaterial"
    }
  ],
  "samplers": [
    {
      "magFilter": 9729,
      "minFilter": 9987,
      "wrapS": 10497,
      "wrapT": 10497
    }
  ],
  "scene": 0,
  "scenes": [
    {
      "name": "Sketchfab_Scene",
      "nodes": [
        0
      ]
    }
  ],
  "textures": [
    {
      "sampler": 0,
      "source": 0
    },
    {
      "sampler": 0,
      "source": 1
    },
    {
      "sampler": 0,
      "source": 2
    },
    {
      "sampler": 0,
      "source": 3
    },
    {
      "sampler": 0,
      "source": 4
    },
    {
      "sampler": 0,
      "source": 5
    },
    {
      "sampler": 0,
      "source": 6
    },
    {
      "sampler": 0,
      "source": 7
    },
    {
      "sampler": 0,
      "source": 8
    },
    {
      "sampler": 0,
      "source": 9
    },
    {
      "sampler": 0,
      "source": 10
    },
    {
      "sampler": 0,
      "source": 11
    },
    {
      "sampler": 0,
      "source": 12
    },
    {
      "sampler": 0,
      "source": 13
    }
  ]
}
