{
  "accessors": [
    {
      "bufferView": 2,
      "componentType": 5126,
      "count": 65532,
      "max": [
        0.2913309931755066,
        0.2069689929485321,
        0.9385049939155579
      ],
      "min": [
        -0.31493499875068665,
        -0.2289009988307953,
        0.0012919999426230788
      ],
      "type": "VEC3"
    },
    {
      "bufferView": 2,
      "byteOffset": 786384,
      "componentType": 5126,
      "count": 65532,
      "max": [
        0.9999918937683105,
        0.9999774098396301,
        0.9999984502792358
      ],
      "min": [
        -0.9998539090156555,
        -0.9999876022338867,
        -0.9997942447662354
      ],
      "type": "VEC3"
    },
    {
      "bufferView": 3,
      "componentType": 5126,
      "count": 65532,
      "max": [
        0.9960784316062927,
        0.9960784316062927,
        0.9960784316062927,
        1.0
      ],
      "min": [
        0.0,
        0.0,
        0.0,
        1.0
      ],
      "type": "VEC4"
    },
    {
      "bufferView": 1,
      "componentType": 5126,
      "count": 65532,
      "max": [
        0.9993619918823242,
        0.9993849992752075
      ],
      "min": [
        0.0011279999744147062,
        0.0006440000142902136
      ],
      "type": "VEC2"
    },
    {
      "bufferView": 0,
      "componentType": 5125,
      "count": 186657,
      "type": "SCALAR"
    },
    {
      "bufferView": 2,
      "byteOffset": 1572768,
      "componentType": 5126,
      "count": 65532,
      "max": [
        0.28948599100112915,
        0.20995399355888367,
        0.9385049939155579
      ],
      "min": [
        -0.3178139925003052,
        -0.22950099408626556,
        0.0012870000209659338
      ],
      "type": "VEC3"
    },
    {
      "bufferView": 2,
      "byteOffset": 2359152,
      "componentType": 5126,
      "count": 65532,
      "max": [
        0.9999918937683105,
        0.999984085559845,
        0.9999993443489075
      ],
      "min": [
        -0.999970018863678,
        -0.9999876022338867,
        -0.9997942447662354
      ],
      "type": "VEC3"
    },
    {
      "bufferView": 3,
      "byteOffset": 1048512,
      "componentType": 5126,
      "count": 65532,
      "max": [
        1.0,
        1.0,
        1.0,
        1.0
      ],
      "min": [
        0.0,
        0.0,
        0.0,
        1.0
      ],
      "type": "VEC4"
    },
    {
      "bufferView": 1,
      "byteOffset": 524256,
      "componentType": 5126,
      "count": 65532,
      "max": [
        0.9970920085906982,
        0.9993339776992798
      ],
      "min": [
        0.0006569999968633056,
        0.0006249999860301614
      ],
      "type": "VEC2"
    },
    {
      "bufferView": 0,
      "byteOffset": 746628,
      "componentType": 5125,
      "count": 211827,
      "type": "SCALAR"
    },
    {
      "bufferView": 2,
      "byteOffset": 3145536,
      "componentType": 5126,
      "count": 15933,
      "max": [
        0.2800770103931427,
        0.20741300284862518,
        0.935854971408844
      ],
      "min": [
        -0.31769099831581116,
        -0.2229589968919754,
        0.001979999942705035
      ],
      "type": "VEC3"
    },
    {
      "bufferView": 2,
      "byteOffset": 3336732,
      "componentType": 5126,
      "count": 15933,
      "max": [
        0.9999718070030212,
        0.999984085559845,
        0.9999912977218628
      ],
      "min": [
        -0.9999600648880005,
        -0.9999876022338867,
        -0.99929279088974
      ],
      "type": "VEC3"
    },
    {
      "bufferView": 3,
      "byteOffset": 2097024,
      "componentType": 5126,
      "count": 15933,
      "max": [
        0.9960784316062927,
        0.9960784316062927,
        0.9960784316062927,
        1.0
      ],
      "min": [
        0.0,
        0.0,
        0.0,
        1.0
      ],
      "type": "VEC4"
    },
    {
      "bufferView": 1,
      "byteOffset": 1048512,
      "componentType": 5126,
      "count": 15933,
      "max": [
        0.9986860156059265,
        0.9894649982452393
      ],
      "min": [
        0.042114000767469406,
        0.0006309999735094607
      ],
      "type": "VEC2"
    },
    {
      "bufferView": 0,
      "byteOffset": 1593936,
      "componentType": 5125,
      "count": 51513,
      "type": "SCALAR"
    }
  ],
  "asset": {
    "extras": {
      "author": "adam_gnusowski (https://sketchfab.com/adam_gnusowski)",
      "license": "CC-BY-4.0 (http://creativecommons.org/licenses/by/4.0/)",
      "source": "https://sketchfab.com/3d-models/assasin-model-3d-97f66ed0a0934970ad5cb3cc09fced8c",
      "title": "Assasin model 3d"
    },
    "generator": "Sketchfab-14.64.0",
    "version": "2.0"
  },
  "bufferViews": [
    {
      "buffer": 0,
      "byteLength": 1799988,
      "name": "floatBufferViews",
      "target": 34963
    },
    {
      "buffer": 0,
      "byteLength": 1175976,
      "byteOffset": 1799988,
      "byteStride": 8,
      "name": "floatBufferViews",
      "target": 34962
    },
    {
      "buffer": 0,
      "byteLength": 3527928,
      "byteOffset": 2975964,
      "byteStride": 12,
      "name": "floatBufferViews",
      "target": 34962
    },
    {
      "buffer": 0,
      "byteLength": 2351952,
      "byteOffset": 6503892,
      "byteStride": 16,
      "name": "floatBufferViews",
      "target": 34962
    }
  ],
  "buffers": [
    {
      "byteLength": 8855844,
      "uri": "scene.bin"
    }
  ],
  "images": [
    {
      "uri": "textures/material_0_baseColor.png"
    }
  ],
  "materials": [
    {
      "doubleSided": true,
      "name": "material_0",
      "pbrMetallicRoughness": {
        "baseColorTexture": {
          "index": 0
        },
        "metallicFactor": 0.3,
        "roughnessFactor": 0.9051298034845136
      }
    }
  ],
  "meshes": [
    {
      "name": "Object_0",
      "primitives": [
        {
          "attributes": {
            "COLOR_0": 2,
            "NORMAL": 1,
            "POSITION": 0,
            "TEXCOORD_0": 3
          },
          "indices": 4,
          "material": 0,
          "mode": 4
        }
      ]
    },
    {
      "name": "Object_1",
      "primitives": [
        {
          "attributes": {
            "COLOR_0": 7,
            "NORMAL": 6,
            "POSITION": 5,
            "TEXCOORD_0": 8
          },
          "indices": 9,
          "material": 0,
          "mode": 4
        }
      ]
    },
    {
      "name": "Object_2",
      "primitives": [
        {
          "attributes": {
            "COLOR_0": 12,
            "NORMAL": 11,
            "POSITION": 10,
            "TEXCOORD_0": 13
          },
          "indices": 14,
          "material": 0,
          "mode": 4
        }
      ]
    }
  ],
  "nodes": [
    {
      "children": [
        1
      ],
      "matrix": [
        1.9765026569366455,
        0.005397412925958566,
        0.30562764406204224,
        0.0,
        0.30567529797554016,
        -0.034899778664111654,
        -1.9761945009231567,
        0.0,
        3.2873009869760494e-16,
        1.9996881484985352,
        -0.035314679145812544,
        0.0,
        0.0,
        0.0,
        0.0,
        1.0
      ],
      "name": "Sketchfab_model"
    },
    {
      "children": [
        2,
        3,
        4
      ],
      "name": "Assassin.obj.cleaner.materialmerger.gles"
    },
    {
      "mesh": 0,
      "name": "Object_2"
    },
    {
      "mesh": 1,
      "name": "Object_3"
    },
    {
      "mesh": 2,
      "name": "Object_4"
    }
  ],
  "samplers": [
    {
      "magFilter": 9729,
      "minFilter": 9987,
      "wrapS": 10497,
      "wrapT": 10497
    }
  ],
  "scene": 0,
  "scenes": [
    {
      "name": "Sketchfab_Scene",
      "nodes": [
        0
      ]
    }
  ],
  "textures": [
    {
      "sampler": 0,
      "source": 0
    }
  ]
}
